<mxfile host="app.diagrams.net" modified="2023-07-27T07:46:29.050Z" agent="Mozilla/5.0 (Windows NT 10.0; Win64; x64) AppleWebKit/537.36 (KHTML, like Gecko) Chrome/115.0.0.0 Safari/537.36 Edg/115.0.1901.183" etag="jOPJfZbizN2Snpp8FtTC" version="21.6.5" type="github">
  <diagram id="C_Lr-fMyFxYX08TO_cOn" name="Page-1">
    <mxGraphModel dx="785" dy="905" grid="1" gridSize="10" guides="1" tooltips="1" connect="1" arrows="1" fold="1" page="1" pageScale="1" pageWidth="850" pageHeight="1100" math="0" shadow="0">
      <root>
        <mxCell id="0" />
        <mxCell id="1" parent="0" />
        <mxCell id="_LLt93re5A-amY6NxNhv-1" value="Input" style="rounded=1;whiteSpace=wrap;html=1;" vertex="1" parent="1">
          <mxGeometry x="60" y="20" width="80" height="40" as="geometry" />
        </mxCell>
        <mxCell id="_LLt93re5A-amY6NxNhv-2" value="Fucus" style="rounded=1;whiteSpace=wrap;html=1;" vertex="1" parent="1">
          <mxGeometry x="60" y="80" width="80" height="40" as="geometry" />
        </mxCell>
        <mxCell id="_LLt93re5A-amY6NxNhv-3" value="Dwconv" style="rounded=1;whiteSpace=wrap;html=1;" vertex="1" parent="1">
          <mxGeometry x="60" y="140" width="80" height="40" as="geometry" />
        </mxCell>
        <mxCell id="_LLt93re5A-amY6NxNhv-4" value="C3" style="rounded=1;whiteSpace=wrap;html=1;" vertex="1" parent="1">
          <mxGeometry x="60" y="200" width="80" height="40" as="geometry" />
        </mxCell>
        <mxCell id="_LLt93re5A-amY6NxNhv-5" value="Dwconv" style="rounded=1;whiteSpace=wrap;html=1;" vertex="1" parent="1">
          <mxGeometry x="60" y="260" width="80" height="40" as="geometry" />
        </mxCell>
        <mxCell id="_LLt93re5A-amY6NxNhv-6" value="C3" style="rounded=1;whiteSpace=wrap;html=1;" vertex="1" parent="1">
          <mxGeometry x="60" y="320" width="80" height="40" as="geometry" />
        </mxCell>
        <mxCell id="_LLt93re5A-amY6NxNhv-7" value="Dwconv" style="rounded=1;whiteSpace=wrap;html=1;" vertex="1" parent="1">
          <mxGeometry x="60" y="380" width="80" height="40" as="geometry" />
        </mxCell>
        <mxCell id="_LLt93re5A-amY6NxNhv-8" value="C3" style="rounded=1;whiteSpace=wrap;html=1;" vertex="1" parent="1">
          <mxGeometry x="60" y="440" width="80" height="40" as="geometry" />
        </mxCell>
        <mxCell id="_LLt93re5A-amY6NxNhv-9" value="Dwconv" style="rounded=1;whiteSpace=wrap;html=1;" vertex="1" parent="1">
          <mxGeometry x="60" y="500" width="80" height="40" as="geometry" />
        </mxCell>
        <mxCell id="_LLt93re5A-amY6NxNhv-10" value="C3" style="rounded=1;whiteSpace=wrap;html=1;" vertex="1" parent="1">
          <mxGeometry x="60" y="560" width="80" height="40" as="geometry" />
        </mxCell>
        <mxCell id="_LLt93re5A-amY6NxNhv-11" value="ASPP" style="rounded=1;whiteSpace=wrap;html=1;" vertex="1" parent="1">
          <mxGeometry x="60" y="620" width="80" height="40" as="geometry" />
        </mxCell>
        <mxCell id="_LLt93re5A-amY6NxNhv-12" value="Trans/HorNet" style="rounded=1;whiteSpace=wrap;html=1;" vertex="1" parent="1">
          <mxGeometry x="60" y="680" width="80" height="40" as="geometry" />
        </mxCell>
        <mxCell id="_LLt93re5A-amY6NxNhv-13" value="" style="endArrow=classic;html=1;rounded=0;exitX=0.5;exitY=1;exitDx=0;exitDy=0;entryX=0.5;entryY=0;entryDx=0;entryDy=0;" edge="1" parent="1" source="_LLt93re5A-amY6NxNhv-1" target="_LLt93re5A-amY6NxNhv-2">
          <mxGeometry width="50" height="50" relative="1" as="geometry">
            <mxPoint x="170" y="210" as="sourcePoint" />
            <mxPoint x="220" y="160" as="targetPoint" />
          </mxGeometry>
        </mxCell>
        <mxCell id="_LLt93re5A-amY6NxNhv-14" value="" style="endArrow=classic;html=1;rounded=0;exitX=0.5;exitY=1;exitDx=0;exitDy=0;entryX=0.5;entryY=0;entryDx=0;entryDy=0;" edge="1" parent="1" source="_LLt93re5A-amY6NxNhv-2" target="_LLt93re5A-amY6NxNhv-3">
          <mxGeometry width="50" height="50" relative="1" as="geometry">
            <mxPoint x="110" y="70" as="sourcePoint" />
            <mxPoint x="110" y="90" as="targetPoint" />
          </mxGeometry>
        </mxCell>
        <mxCell id="_LLt93re5A-amY6NxNhv-15" value="" style="endArrow=classic;html=1;rounded=0;exitX=0.5;exitY=1;exitDx=0;exitDy=0;entryX=0.5;entryY=0;entryDx=0;entryDy=0;" edge="1" parent="1" source="_LLt93re5A-amY6NxNhv-3" target="_LLt93re5A-amY6NxNhv-4">
          <mxGeometry width="50" height="50" relative="1" as="geometry">
            <mxPoint x="120" y="80" as="sourcePoint" />
            <mxPoint x="120" y="100" as="targetPoint" />
          </mxGeometry>
        </mxCell>
        <mxCell id="_LLt93re5A-amY6NxNhv-16" value="" style="endArrow=classic;html=1;rounded=0;exitX=0.5;exitY=1;exitDx=0;exitDy=0;entryX=0.5;entryY=0;entryDx=0;entryDy=0;" edge="1" parent="1" source="_LLt93re5A-amY6NxNhv-4" target="_LLt93re5A-amY6NxNhv-5">
          <mxGeometry width="50" height="50" relative="1" as="geometry">
            <mxPoint x="130" y="90" as="sourcePoint" />
            <mxPoint x="130" y="110" as="targetPoint" />
          </mxGeometry>
        </mxCell>
        <mxCell id="_LLt93re5A-amY6NxNhv-17" value="" style="endArrow=classic;html=1;rounded=0;exitX=0.5;exitY=1;exitDx=0;exitDy=0;entryX=0.5;entryY=0;entryDx=0;entryDy=0;" edge="1" parent="1" source="_LLt93re5A-amY6NxNhv-5" target="_LLt93re5A-amY6NxNhv-6">
          <mxGeometry width="50" height="50" relative="1" as="geometry">
            <mxPoint x="140" y="100" as="sourcePoint" />
            <mxPoint x="140" y="120" as="targetPoint" />
          </mxGeometry>
        </mxCell>
        <mxCell id="_LLt93re5A-amY6NxNhv-18" value="" style="endArrow=classic;html=1;rounded=0;exitX=0.5;exitY=1;exitDx=0;exitDy=0;entryX=0.5;entryY=0;entryDx=0;entryDy=0;" edge="1" parent="1" source="_LLt93re5A-amY6NxNhv-6" target="_LLt93re5A-amY6NxNhv-7">
          <mxGeometry width="50" height="50" relative="1" as="geometry">
            <mxPoint x="150" y="110" as="sourcePoint" />
            <mxPoint x="150" y="130" as="targetPoint" />
          </mxGeometry>
        </mxCell>
        <mxCell id="_LLt93re5A-amY6NxNhv-19" value="" style="endArrow=classic;html=1;rounded=0;exitX=0.5;exitY=1;exitDx=0;exitDy=0;entryX=0.5;entryY=0;entryDx=0;entryDy=0;" edge="1" parent="1" source="_LLt93re5A-amY6NxNhv-7" target="_LLt93re5A-amY6NxNhv-8">
          <mxGeometry width="50" height="50" relative="1" as="geometry">
            <mxPoint x="160" y="120" as="sourcePoint" />
            <mxPoint x="160" y="140" as="targetPoint" />
          </mxGeometry>
        </mxCell>
        <mxCell id="_LLt93re5A-amY6NxNhv-20" value="" style="endArrow=classic;html=1;rounded=0;exitX=0.5;exitY=1;exitDx=0;exitDy=0;" edge="1" parent="1" source="_LLt93re5A-amY6NxNhv-8">
          <mxGeometry width="50" height="50" relative="1" as="geometry">
            <mxPoint x="170" y="130" as="sourcePoint" />
            <mxPoint x="100" y="500" as="targetPoint" />
          </mxGeometry>
        </mxCell>
        <mxCell id="_LLt93re5A-amY6NxNhv-21" value="" style="endArrow=classic;html=1;rounded=0;exitX=0.5;exitY=1;exitDx=0;exitDy=0;entryX=0.5;entryY=0;entryDx=0;entryDy=0;" edge="1" parent="1" source="_LLt93re5A-amY6NxNhv-9" target="_LLt93re5A-amY6NxNhv-10">
          <mxGeometry width="50" height="50" relative="1" as="geometry">
            <mxPoint x="180" y="140" as="sourcePoint" />
            <mxPoint x="180" y="160" as="targetPoint" />
          </mxGeometry>
        </mxCell>
        <mxCell id="_LLt93re5A-amY6NxNhv-22" value="" style="endArrow=classic;html=1;rounded=0;entryX=0.5;entryY=0;entryDx=0;entryDy=0;" edge="1" parent="1" target="_LLt93re5A-amY6NxNhv-11">
          <mxGeometry width="50" height="50" relative="1" as="geometry">
            <mxPoint x="100" y="600" as="sourcePoint" />
            <mxPoint x="190" y="170" as="targetPoint" />
          </mxGeometry>
        </mxCell>
        <mxCell id="_LLt93re5A-amY6NxNhv-23" value="" style="endArrow=classic;html=1;rounded=0;entryX=0.5;entryY=0;entryDx=0;entryDy=0;exitX=0.5;exitY=1;exitDx=0;exitDy=0;" edge="1" parent="1" source="_LLt93re5A-amY6NxNhv-11" target="_LLt93re5A-amY6NxNhv-12">
          <mxGeometry width="50" height="50" relative="1" as="geometry">
            <mxPoint x="100" y="676" as="sourcePoint" />
            <mxPoint x="200" y="180" as="targetPoint" />
          </mxGeometry>
        </mxCell>
        <mxCell id="_LLt93re5A-amY6NxNhv-24" value="" style="endArrow=classic;html=1;rounded=0;exitX=1;exitY=0.5;exitDx=0;exitDy=0;entryX=0.25;entryY=1;entryDx=0;entryDy=0;" edge="1" parent="1" source="_LLt93re5A-amY6NxNhv-6" target="_LLt93re5A-amY6NxNhv-25">
          <mxGeometry width="50" height="50" relative="1" as="geometry">
            <mxPoint x="210" y="370" as="sourcePoint" />
            <mxPoint x="280" y="340" as="targetPoint" />
            <Array as="points">
              <mxPoint x="160" y="340" />
              <mxPoint x="160" y="260" />
            </Array>
          </mxGeometry>
        </mxCell>
        <mxCell id="_LLt93re5A-amY6NxNhv-48" style="edgeStyle=orthogonalEdgeStyle;rounded=0;orthogonalLoop=1;jettySize=auto;html=1;exitX=0.5;exitY=0;exitDx=0;exitDy=0;entryX=0;entryY=0.5;entryDx=0;entryDy=0;" edge="1" parent="1" source="_LLt93re5A-amY6NxNhv-25" target="_LLt93re5A-amY6NxNhv-47">
          <mxGeometry relative="1" as="geometry" />
        </mxCell>
        <mxCell id="_LLt93re5A-amY6NxNhv-25" value="concat" style="shape=trapezoid;perimeter=trapezoidPerimeter;whiteSpace=wrap;html=1;fixedSize=1;rotation=90;" vertex="1" parent="1">
          <mxGeometry x="290" y="255" width="90" height="50" as="geometry" />
        </mxCell>
        <mxCell id="_LLt93re5A-amY6NxNhv-26" value="上采样" style="rounded=1;whiteSpace=wrap;html=1;" vertex="1" parent="1">
          <mxGeometry x="180" y="560" width="80" height="40" as="geometry" />
        </mxCell>
        <mxCell id="_LLt93re5A-amY6NxNhv-56" style="edgeStyle=orthogonalEdgeStyle;rounded=0;orthogonalLoop=1;jettySize=auto;html=1;exitX=1;exitY=0.5;exitDx=0;exitDy=0;entryX=0.75;entryY=1;entryDx=0;entryDy=0;" edge="1" parent="1" source="_LLt93re5A-amY6NxNhv-27" target="_LLt93re5A-amY6NxNhv-54">
          <mxGeometry relative="1" as="geometry" />
        </mxCell>
        <mxCell id="_LLt93re5A-amY6NxNhv-27" value="Dwconv" style="rounded=1;whiteSpace=wrap;html=1;" vertex="1" parent="1">
          <mxGeometry x="180" y="620" width="80" height="40" as="geometry" />
        </mxCell>
        <mxCell id="_LLt93re5A-amY6NxNhv-28" value="C3" style="rounded=1;whiteSpace=wrap;html=1;" vertex="1" parent="1">
          <mxGeometry x="180" y="680" width="80" height="40" as="geometry" />
        </mxCell>
        <mxCell id="_LLt93re5A-amY6NxNhv-29" value="" style="endArrow=classic;html=1;rounded=0;exitX=0.5;exitY=0;exitDx=0;exitDy=0;entryX=0.5;entryY=1;entryDx=0;entryDy=0;" edge="1" parent="1" source="_LLt93re5A-amY6NxNhv-28" target="_LLt93re5A-amY6NxNhv-27">
          <mxGeometry width="50" height="50" relative="1" as="geometry">
            <mxPoint x="300" y="260" as="sourcePoint" />
            <mxPoint x="300" y="280" as="targetPoint" />
          </mxGeometry>
        </mxCell>
        <mxCell id="_LLt93re5A-amY6NxNhv-30" value="" style="endArrow=classic;html=1;rounded=0;exitX=0.5;exitY=0;exitDx=0;exitDy=0;entryX=0.5;entryY=1;entryDx=0;entryDy=0;" edge="1" parent="1" source="_LLt93re5A-amY6NxNhv-27" target="_LLt93re5A-amY6NxNhv-26">
          <mxGeometry width="50" height="50" relative="1" as="geometry">
            <mxPoint x="210" y="570" as="sourcePoint" />
            <mxPoint x="260" y="520" as="targetPoint" />
          </mxGeometry>
        </mxCell>
        <mxCell id="_LLt93re5A-amY6NxNhv-31" value="" style="endArrow=classic;html=1;rounded=0;exitX=1;exitY=0.5;exitDx=0;exitDy=0;entryX=0;entryY=0.5;entryDx=0;entryDy=0;" edge="1" parent="1" source="_LLt93re5A-amY6NxNhv-12" target="_LLt93re5A-amY6NxNhv-28">
          <mxGeometry width="50" height="50" relative="1" as="geometry">
            <mxPoint x="210" y="570" as="sourcePoint" />
            <mxPoint x="260" y="520" as="targetPoint" />
          </mxGeometry>
        </mxCell>
        <mxCell id="_LLt93re5A-amY6NxNhv-41" style="edgeStyle=orthogonalEdgeStyle;rounded=0;orthogonalLoop=1;jettySize=auto;html=1;exitX=0.5;exitY=0;exitDx=0;exitDy=0;entryX=0.5;entryY=1;entryDx=0;entryDy=0;" edge="1" parent="1" source="_LLt93re5A-amY6NxNhv-32" target="_LLt93re5A-amY6NxNhv-37">
          <mxGeometry relative="1" as="geometry" />
        </mxCell>
        <mxCell id="_LLt93re5A-amY6NxNhv-32" value="concat" style="shape=trapezoid;perimeter=trapezoidPerimeter;whiteSpace=wrap;html=1;fixedSize=1;rotation=0;" vertex="1" parent="1">
          <mxGeometry x="180" y="500" width="80" height="30" as="geometry" />
        </mxCell>
        <mxCell id="_LLt93re5A-amY6NxNhv-33" value="" style="endArrow=classic;html=1;rounded=0;exitX=0.75;exitY=0;exitDx=0;exitDy=0;entryX=0.75;entryY=1;entryDx=0;entryDy=0;" edge="1" parent="1" source="_LLt93re5A-amY6NxNhv-26" target="_LLt93re5A-amY6NxNhv-32">
          <mxGeometry width="50" height="50" relative="1" as="geometry">
            <mxPoint x="210" y="570" as="sourcePoint" />
            <mxPoint x="260" y="520" as="targetPoint" />
          </mxGeometry>
        </mxCell>
        <mxCell id="_LLt93re5A-amY6NxNhv-34" value="" style="endArrow=classic;html=1;rounded=0;exitX=1;exitY=0.5;exitDx=0;exitDy=0;entryX=0.25;entryY=1;entryDx=0;entryDy=0;" edge="1" parent="1" source="_LLt93re5A-amY6NxNhv-8" target="_LLt93re5A-amY6NxNhv-32">
          <mxGeometry width="50" height="50" relative="1" as="geometry">
            <mxPoint x="210" y="570" as="sourcePoint" />
            <mxPoint x="260" y="520" as="targetPoint" />
            <Array as="points">
              <mxPoint x="160" y="460" />
              <mxPoint x="160" y="550" />
              <mxPoint x="200" y="550" />
            </Array>
          </mxGeometry>
        </mxCell>
        <mxCell id="_LLt93re5A-amY6NxNhv-36" value="Dwconv" style="rounded=1;whiteSpace=wrap;html=1;" vertex="1" parent="1">
          <mxGeometry x="180" y="380" width="80" height="40" as="geometry" />
        </mxCell>
        <mxCell id="_LLt93re5A-amY6NxNhv-37" value="C3" style="rounded=1;whiteSpace=wrap;html=1;" vertex="1" parent="1">
          <mxGeometry x="180" y="440" width="80" height="40" as="geometry" />
        </mxCell>
        <mxCell id="_LLt93re5A-amY6NxNhv-38" value="" style="endArrow=classic;html=1;rounded=0;exitX=0.5;exitY=0;exitDx=0;exitDy=0;entryX=0.5;entryY=1;entryDx=0;entryDy=0;" edge="1" parent="1" source="_LLt93re5A-amY6NxNhv-37" target="_LLt93re5A-amY6NxNhv-36">
          <mxGeometry width="50" height="50" relative="1" as="geometry">
            <mxPoint x="300" y="20" as="sourcePoint" />
            <mxPoint x="300" y="40" as="targetPoint" />
          </mxGeometry>
        </mxCell>
        <mxCell id="_LLt93re5A-amY6NxNhv-39" value="" style="endArrow=classic;html=1;rounded=0;exitX=0.5;exitY=0;exitDx=0;exitDy=0;entryX=0.5;entryY=1;entryDx=0;entryDy=0;" edge="1" parent="1" source="_LLt93re5A-amY6NxNhv-36">
          <mxGeometry width="50" height="50" relative="1" as="geometry">
            <mxPoint x="210" y="330" as="sourcePoint" />
            <mxPoint x="220" y="360" as="targetPoint" />
          </mxGeometry>
        </mxCell>
        <mxCell id="_LLt93re5A-amY6NxNhv-42" value="上采样" style="rounded=1;whiteSpace=wrap;html=1;" vertex="1" parent="1">
          <mxGeometry x="180" y="320" width="80" height="40" as="geometry" />
        </mxCell>
        <mxCell id="_LLt93re5A-amY6NxNhv-43" value="" style="endArrow=classic;html=1;rounded=0;exitX=0.5;exitY=0;exitDx=0;exitDy=0;entryX=0.683;entryY=1.025;entryDx=0;entryDy=0;entryPerimeter=0;" edge="1" parent="1" source="_LLt93re5A-amY6NxNhv-42" target="_LLt93re5A-amY6NxNhv-25">
          <mxGeometry width="50" height="50" relative="1" as="geometry">
            <mxPoint x="210" y="270" as="sourcePoint" />
            <mxPoint x="290" y="300" as="targetPoint" />
            <Array as="points">
              <mxPoint x="220" y="296" />
            </Array>
          </mxGeometry>
        </mxCell>
        <mxCell id="_LLt93re5A-amY6NxNhv-51" style="edgeStyle=orthogonalEdgeStyle;rounded=0;orthogonalLoop=1;jettySize=auto;html=1;exitX=0.5;exitY=0;exitDx=0;exitDy=0;entryX=0;entryY=0.5;entryDx=0;entryDy=0;" edge="1" parent="1" source="_LLt93re5A-amY6NxNhv-45" target="_LLt93re5A-amY6NxNhv-50">
          <mxGeometry relative="1" as="geometry" />
        </mxCell>
        <mxCell id="_LLt93re5A-amY6NxNhv-45" value="concat" style="shape=trapezoid;perimeter=trapezoidPerimeter;whiteSpace=wrap;html=1;fixedSize=1;rotation=90;" vertex="1" parent="1">
          <mxGeometry x="290" y="360" width="90" height="50" as="geometry" />
        </mxCell>
        <mxCell id="_LLt93re5A-amY6NxNhv-46" value="" style="endArrow=classic;html=1;rounded=0;exitX=1;exitY=0.5;exitDx=0;exitDy=0;" edge="1" parent="1" source="_LLt93re5A-amY6NxNhv-36">
          <mxGeometry width="50" height="50" relative="1" as="geometry">
            <mxPoint x="160" y="390" as="sourcePoint" />
            <mxPoint x="310" y="400" as="targetPoint" />
          </mxGeometry>
        </mxCell>
        <mxCell id="_LLt93re5A-amY6NxNhv-49" style="edgeStyle=orthogonalEdgeStyle;rounded=0;orthogonalLoop=1;jettySize=auto;html=1;exitX=0.5;exitY=1;exitDx=0;exitDy=0;entryX=0.316;entryY=1;entryDx=0;entryDy=0;entryPerimeter=0;" edge="1" parent="1" source="_LLt93re5A-amY6NxNhv-47" target="_LLt93re5A-amY6NxNhv-45">
          <mxGeometry relative="1" as="geometry">
            <Array as="points">
              <mxPoint x="440" y="330" />
              <mxPoint x="290" y="330" />
              <mxPoint x="290" y="368" />
            </Array>
          </mxGeometry>
        </mxCell>
        <mxCell id="_LLt93re5A-amY6NxNhv-61" style="edgeStyle=orthogonalEdgeStyle;rounded=0;orthogonalLoop=1;jettySize=auto;html=1;exitX=1;exitY=0.5;exitDx=0;exitDy=0;entryX=0;entryY=0.5;entryDx=0;entryDy=0;" edge="1" parent="1" source="_LLt93re5A-amY6NxNhv-47" target="_LLt93re5A-amY6NxNhv-58">
          <mxGeometry relative="1" as="geometry" />
        </mxCell>
        <mxCell id="_LLt93re5A-amY6NxNhv-47" value="C3" style="rounded=1;whiteSpace=wrap;html=1;" vertex="1" parent="1">
          <mxGeometry x="400" y="260" width="80" height="40" as="geometry" />
        </mxCell>
        <mxCell id="_LLt93re5A-amY6NxNhv-53" style="edgeStyle=orthogonalEdgeStyle;rounded=0;orthogonalLoop=1;jettySize=auto;html=1;exitX=0.5;exitY=1;exitDx=0;exitDy=0;" edge="1" parent="1" source="_LLt93re5A-amY6NxNhv-50">
          <mxGeometry relative="1" as="geometry">
            <mxPoint x="440.4" y="405.20000000000005" as="targetPoint" />
          </mxGeometry>
        </mxCell>
        <mxCell id="_LLt93re5A-amY6NxNhv-55" style="edgeStyle=orthogonalEdgeStyle;rounded=0;orthogonalLoop=1;jettySize=auto;html=1;exitX=0.5;exitY=1;exitDx=0;exitDy=0;entryX=0.25;entryY=1;entryDx=0;entryDy=0;" edge="1" parent="1" source="_LLt93re5A-amY6NxNhv-50" target="_LLt93re5A-amY6NxNhv-54">
          <mxGeometry relative="1" as="geometry">
            <Array as="points">
              <mxPoint x="440" y="440" />
              <mxPoint x="290" y="440" />
              <mxPoint x="290" y="472" />
            </Array>
          </mxGeometry>
        </mxCell>
        <mxCell id="_LLt93re5A-amY6NxNhv-62" style="edgeStyle=orthogonalEdgeStyle;rounded=0;orthogonalLoop=1;jettySize=auto;html=1;exitX=1;exitY=0.5;exitDx=0;exitDy=0;entryX=0;entryY=0.5;entryDx=0;entryDy=0;" edge="1" parent="1" source="_LLt93re5A-amY6NxNhv-50" target="_LLt93re5A-amY6NxNhv-59">
          <mxGeometry relative="1" as="geometry" />
        </mxCell>
        <mxCell id="_LLt93re5A-amY6NxNhv-50" value="C3" style="rounded=1;whiteSpace=wrap;html=1;" vertex="1" parent="1">
          <mxGeometry x="400" y="365" width="80" height="40" as="geometry" />
        </mxCell>
        <mxCell id="_LLt93re5A-amY6NxNhv-63" style="edgeStyle=orthogonalEdgeStyle;rounded=0;orthogonalLoop=1;jettySize=auto;html=1;exitX=1;exitY=0.5;exitDx=0;exitDy=0;entryX=0;entryY=0.5;entryDx=0;entryDy=0;" edge="1" parent="1" source="_LLt93re5A-amY6NxNhv-52" target="_LLt93re5A-amY6NxNhv-60">
          <mxGeometry relative="1" as="geometry" />
        </mxCell>
        <mxCell id="_LLt93re5A-amY6NxNhv-52" value="C3" style="rounded=1;whiteSpace=wrap;html=1;" vertex="1" parent="1">
          <mxGeometry x="400" y="475" width="80" height="40" as="geometry" />
        </mxCell>
        <mxCell id="_LLt93re5A-amY6NxNhv-57" style="edgeStyle=orthogonalEdgeStyle;rounded=0;orthogonalLoop=1;jettySize=auto;html=1;exitX=0.5;exitY=0;exitDx=0;exitDy=0;" edge="1" parent="1" source="_LLt93re5A-amY6NxNhv-54" target="_LLt93re5A-amY6NxNhv-52">
          <mxGeometry relative="1" as="geometry" />
        </mxCell>
        <mxCell id="_LLt93re5A-amY6NxNhv-54" value="concat" style="shape=trapezoid;perimeter=trapezoidPerimeter;whiteSpace=wrap;html=1;fixedSize=1;rotation=90;" vertex="1" parent="1">
          <mxGeometry x="290" y="470" width="90" height="50" as="geometry" />
        </mxCell>
        <mxCell id="_LLt93re5A-amY6NxNhv-58" value="ASFF" style="rounded=1;whiteSpace=wrap;html=1;" vertex="1" parent="1">
          <mxGeometry x="520" y="260" width="80" height="40" as="geometry" />
        </mxCell>
        <mxCell id="_LLt93re5A-amY6NxNhv-59" value="ASFF" style="rounded=1;whiteSpace=wrap;html=1;" vertex="1" parent="1">
          <mxGeometry x="520" y="365" width="80" height="40" as="geometry" />
        </mxCell>
        <mxCell id="_LLt93re5A-amY6NxNhv-60" value="ASFF" style="rounded=1;whiteSpace=wrap;html=1;" vertex="1" parent="1">
          <mxGeometry x="520" y="475" width="80" height="40" as="geometry" />
        </mxCell>
        <mxCell id="_LLt93re5A-amY6NxNhv-64" value="" style="endArrow=classic;html=1;rounded=0;exitX=1;exitY=0.5;exitDx=0;exitDy=0;" edge="1" parent="1" source="_LLt93re5A-amY6NxNhv-58">
          <mxGeometry width="50" height="50" relative="1" as="geometry">
            <mxPoint x="620" y="430" as="sourcePoint" />
            <mxPoint x="720" y="280" as="targetPoint" />
          </mxGeometry>
        </mxCell>
        <mxCell id="_LLt93re5A-amY6NxNhv-65" value="" style="endArrow=classic;html=1;rounded=0;exitX=1;exitY=0.5;exitDx=0;exitDy=0;" edge="1" parent="1">
          <mxGeometry width="50" height="50" relative="1" as="geometry">
            <mxPoint x="600" y="384.6" as="sourcePoint" />
            <mxPoint x="720" y="384.6" as="targetPoint" />
          </mxGeometry>
        </mxCell>
        <mxCell id="_LLt93re5A-amY6NxNhv-66" value="" style="endArrow=classic;html=1;rounded=0;exitX=1;exitY=0.5;exitDx=0;exitDy=0;" edge="1" parent="1">
          <mxGeometry width="50" height="50" relative="1" as="geometry">
            <mxPoint x="600" y="499.2" as="sourcePoint" />
            <mxPoint x="720" y="499.2" as="targetPoint" />
          </mxGeometry>
        </mxCell>
        <mxCell id="_LLt93re5A-amY6NxNhv-67" value="" style="endArrow=classic;html=1;rounded=0;" edge="1" parent="1">
          <mxGeometry width="50" height="50" relative="1" as="geometry">
            <mxPoint x="600" y="280" as="sourcePoint" />
            <mxPoint x="720" y="380" as="targetPoint" />
          </mxGeometry>
        </mxCell>
        <mxCell id="_LLt93re5A-amY6NxNhv-68" value="" style="endArrow=classic;html=1;rounded=0;exitX=1;exitY=0.5;exitDx=0;exitDy=0;" edge="1" parent="1" source="_LLt93re5A-amY6NxNhv-58">
          <mxGeometry width="50" height="50" relative="1" as="geometry">
            <mxPoint x="610" y="290" as="sourcePoint" />
            <mxPoint x="720" y="490" as="targetPoint" />
          </mxGeometry>
        </mxCell>
        <mxCell id="_LLt93re5A-amY6NxNhv-69" value="" style="endArrow=classic;html=1;rounded=0;exitX=1;exitY=0.5;exitDx=0;exitDy=0;" edge="1" parent="1" source="_LLt93re5A-amY6NxNhv-59">
          <mxGeometry width="50" height="50" relative="1" as="geometry">
            <mxPoint x="620" y="300" as="sourcePoint" />
            <mxPoint x="710" y="290" as="targetPoint" />
          </mxGeometry>
        </mxCell>
        <mxCell id="_LLt93re5A-amY6NxNhv-70" value="" style="endArrow=classic;html=1;rounded=0;exitX=1;exitY=0.5;exitDx=0;exitDy=0;" edge="1" parent="1" source="_LLt93re5A-amY6NxNhv-59">
          <mxGeometry width="50" height="50" relative="1" as="geometry">
            <mxPoint x="630" y="310" as="sourcePoint" />
            <mxPoint x="710" y="490" as="targetPoint" />
          </mxGeometry>
        </mxCell>
        <mxCell id="_LLt93re5A-amY6NxNhv-71" value="" style="endArrow=classic;html=1;rounded=0;" edge="1" parent="1">
          <mxGeometry width="50" height="50" relative="1" as="geometry">
            <mxPoint x="600" y="500" as="sourcePoint" />
            <mxPoint x="720" y="390" as="targetPoint" />
          </mxGeometry>
        </mxCell>
        <mxCell id="_LLt93re5A-amY6NxNhv-72" value="" style="endArrow=classic;html=1;rounded=0;" edge="1" parent="1">
          <mxGeometry width="50" height="50" relative="1" as="geometry">
            <mxPoint x="600" y="500" as="sourcePoint" />
            <mxPoint x="720" y="290" as="targetPoint" />
          </mxGeometry>
        </mxCell>
      </root>
    </mxGraphModel>
  </diagram>
</mxfile>
